<svg xmlns="http://www.w3.org/2000/svg" width="314" height="177"><g fill="none" fill-rule="evenodd"><g fill="#010410" stroke="#010410" stroke-linecap="round" stroke-linejoin="round" stroke-width="1.5"><path d="M89.4634429 28.317095c25.0341001 0 45.3277501-5.0726 45.3277501-11.3321 0-6.2582-20.29365-11.33145-45.3277501-11.33145-25.0341 0-45.3271 5.07325-45.3271 11.33145 0 6.2595 20.293 11.3321 45.3271 11.3321"/><path d="M163.606603 112.7298c.4199-.4537.80015-.91715 1.1492-1.38385.37765-.5031.70265-1.0179.9945-1.5366.09815-.1755.1807-.35295.27365-.52845 2.99845 1.90645 5.837 3.4541 7.68495 6.8107 2.3595 4.29 1.7303 9.77275.195 14.1804-.05005.1404.16575.195.21775.0611 3.06605-7.8169 2.62145-21.29855-7.06615-24.19235.05395-.351.0754-.7059.0897-1.0621.0039-.09165.02145-.18005.02275-.27235 0-.6838-.08125-1.3611-.234-2.02735-.01625-.07085-.04225-.14105-.05915-.21255.5837.41535 1.1453.83525 1.68415 1.261.63505.5005 1.23955 1.00815 1.81155 1.52165 4.5799 4.1119 7.10515 8.59885 7.0798 13.2145-.0455 7.97355-1.287 19.1672-8.8218 29.42615 4.6501-13.58305 7.68105-31.486-5.0219-35.2599m-73.3655001 61.48025c-21.5501-.02275-37.92165-2.9172-50.3321-7.4841-7.1162-12.9246-12.7439-26.63245-10.8264-41.2802.0234-.1781-.26585-.20865-.3068-.04095-2.8613 11.31455 1.17585 23.0698 5.5224 33.4906.96265 2.3075 2.00005 4.59225 3.0862 6.8562-.73775-.29705-1.4599-.60255-2.1671-.91325-1.1635-2.21065-2.2867-4.4421-3.35595-6.69435-4.7684-10.04185-9.24885-21.99925-8.3421-33.30535.0052-.065-.0949-.0754-.11115-.0156-3.07515 11.0422.6825 22.65965 4.93675 32.877.299.7163.6084 1.46055.92495 2.2152-10.1452-13.7644-18.3053-28.89315-15.41085-45.9732.026-.14625-.1638-.1963-.2184-.06045-4.92635 12.2005 1.66335 26.04615 7.00635 37.0318 1.04195 2.14305 2.19765 4.36995 3.4554 6.6209-.5135-.58565-1.02765-1.16935-1.534-1.75955-9.1182-13.988-17.9985-29.02315-12.39225-46.09345.02795-.08775-.1066-.12285-.13715-.03835-3.79535 10.30445-3.315 19.34725.6305 29.51325-4.9231-9.12665-7.64985-19.61115-3.4125-29.38585.10595-.24895-.2561-.46735-.36985-.2158-5.23315 11.67725-3.67055 22.72595 2.18205 33.71095-5.40215-8.87315-6.825-17.9582-6.852502-24.70195-.031648-5.6316 3.704552-11.0721 10.374852-15.87105-.07475.31525-.13195.63245-.17485.95225-.013.1014-.02535.2015-.0351.30225-.02665.2847-.04875.57135-.04875.8593.00845.8034.13715 1.59055.33995 2.36535.0247.09035.0364.18265.0637.273-.06435.06825-.1365.1261-.19955.19435.06955-.05265.13715-.1066.20735-.1586.27755.94185.689 1.8616 1.23825 2.7586.37635.6175.8385 1.21875 1.33705 1.8135.61555.73385 1.3143 1.4521 2.106 2.15085.7319.6487 1.53855 1.28245 2.41605 1.9006.4108.2899.84435.5746 1.28505.85735.8203.5252 1.6744 1.04195 2.59285 1.5431.97825.5343 2.0267 1.0491 3.11025 1.55415 1.1349.52845 2.31465 1.0452 3.56005 1.5418.5356.2145 1.0855.4251 1.6419.6331.61165.22945 1.2402.4537 1.8746.67665.39195.1365.77285.2769 1.17325.41145 2.14305.71565 4.4642 1.3832 6.90755 2.01045.61945.15925 1.23825.31785 1.8733.4706.6357.15275 1.2831.30225 1.9357.44785 2.48235.559 5.07845 1.07315 7.7753 1.53985.34515.0598.6968.117 1.04585.1755.35555.05915.70655.12025 1.066.17745 3.61855.58175 7.38725 1.08355 11.27555 1.48915.32695.03445.66105.0624.98995.0949.34125.0338.68445.0663 1.02635.0988 3.4775.33215 7.033.5889 10.6392.76765.3029.0156.60515.0299.90805.04355.2691.0117.53755.0273.80535.03835 2.4895.1053 4.99785.17225 7.5153.20085.3029.00325.60385.01235.9074.0143.07345-.00065.14755-.0026.22035-.00325.37505-.00325.7488-.01235 1.1232-.0169 2.79955-.03705 5.5861-.1235 8.346-.2548.42185-.02015.8463-.03835 1.26685-.0611.3835001-.0195.7637501-.0403 1.1446501-.0624 2.01045-.117 4.00335-.25935 5.97545-.4238.37245-.03055.74815-.05785 1.1193-.0897.33215-.0299.6591-.06565.99125-.0962 2.90355-.2691 5.75055-.58955 8.52735-.9568.50245-.0676 1.0075-.1313 1.5054-.20085.47905-.06695.94965-.1404 1.4235-.2106 1.37215-.20345 2.7248-.4173 4.0547-.64415 1.00295-.1703 1.9903-.34775 2.96595-.5317.69095-.12935 1.378-.26065 2.054-.39715.1729-.03445.3419-.07215.5148-.1066.7631-.1573 1.52555-.3146 2.2685-.4784.71695-.1586 1.4144-.3237 2.10925-.48945.13195-.03055.26975-.06045.40235-.09295.89635-.21645 1.76865-.43875 2.63055-.66755.85345-.2262 1.68285-.4589 2.4986-.6955.5174-.1508 1.02895-.30225 1.53205-.4576.676-.20865 1.35005-.416 1.9968-.6318.06565-.02145.12805-.0455.19305-.06825 3.4788 7.57315 4.654 15.7339 3.54575 24.0461-.05915.4537.6526.4485.7124 0 1.07705-8.0834.2457-16.95655-3.60035-24.27685.0221-.00715.0429-.0156.06435-.02275.8346-.28925 1.6484-.58435 2.44205-.8853.18525-.0702.3679-.1417.55055-.21255.2418.00975.48165-.03705.7111-.11895 5.14865 7.47955 7.92805 15.9939 6.3362 25.3994-.09425.5564.75465.7956.84955.2353 1.2779-7.41455.8892-20.0278-4.65985-26.8606.84305-.3718 1.6692-.7501 2.45245-1.1388.46085-.2288.90545-.4628 1.3442-.69615.34905-.18655.6864-.37375 1.0205-.56225.4017-.22815.767-.46345 1.14855-.6955 1.78685 1.99745 3.4268 4.0885 4.5045 6.8263 1.72445 4.3771 1.989 9.25535 2.12095 13.9035.0052.1833.28275.1833.2847 0 .0806-6.84515-.6591-15.96725-5.11225-21.8894.98605-.6773 1.9149-1.36825 2.7261-2.0839.02665-.01235.05525-.02665.08125-.03965.1781-.0884.32825-.21515.481-.33865.03575.026.0624.05655.10855.0767 12.3747 5.2338 9.217 22.6174 4.60135 35.74935-10.74645 13.2288-32.66705 24.4816-77.0867501 24.5414m-54.7794-100.03825c.8632-.32435.07345-.63245-.46475-1.53985-4.0612-6.8432-5.4639-13.2912-6.3128-21.39865-.85865-8.18805-.8632-15.925.4888-24.06235.0533-.31915-.41145-.46215-.49335-.13585-2.10925 8.3239-3.93315 17.2471-3.3436 25.8609.09035 1.326.23465 2.72935.44525 4.16325-.6279-3.20645-1.0712-6.9797-1.0712-11.3412 0-10.8745 1.4092-17.89385 2.8028-22.17215.28925-.88595.57395-1.62825.84955-2.2893 1.21225 4.84835 7.96835 8.73405 18.00435 11.7143 11.06365 3.2409 26.28535 5.2325 43.09695 5.2325 16.8122501 0 32.0339501-1.9916 43.0976001-5.2325 10.1101-3.0017 16.89285-6.9225 18.03035-11.82025.3224 1.06925.6656 2.2763 1.014 3.62505 1.30715 5.0739 2.613 11.90995 2.609115 18.91825.009085 9.1195-4.047565 21.80815-5.278665 25.47415-1.846 3.523-7.7948 7.0083-16.71735 9.58555-10.907 3.1941-26.03965 5.18115-42.7550501 5.18115-2.79565 0-5.54385-.06045-8.2381-.169-.0975-.0026-.19565-.00585-.2925-.0104-.09685-.0039-.19305-.0065-.2899-.0104-1.90125-.08125-3.77195-.18915-5.61145-.32175-.14495-.0104-.2912-.01885-.43615-.02925-.1352-.0104-.273-.02015-.4082-.0299-5.17205-.3939-10.06395-.98605-14.5951-1.74135-.07865-.013-.1547-.026-.2327-.039-.08255-.01365-.16575-.0273-.24895-.0416-2.58245-.44005-5.04205-.9321-7.3593-1.4742-.11765-.02795-.2392-.05395-.3575-.0819-.1391-.03315-.28405-.06435-.4225-.09815-1.15245-.2782-2.2594-.57395-3.33515-.8762-.30875-.0858-.62595-.1703-.92755-.25805-.6487-.1872-1.27595-.3809-1.89215-.57785-.21255-.06695-.4199-.1365-.62855-.20475-.44525-.1469-.8801-.2951-1.3052-.4459-.1534-.0546-.2977-.1105-.4485-.1651.2288-.0793.4121-.3029.35425-.6188-2.09625-11.3282-4.36085-22.2677-3.5802-33.85525.0494-.73905-1.06665-.71825-1.13815 0-1.15765 11.79945.18005 22.83905 3.70435 34.1354.01495.0481.03965.0819.0637.12025-.07475-.02795-.1534-.05525-.22685-.0832-.0767-.02925-.15535-.05915-.23205-.08905-.00585-.0026-.013-.00455-.01885-.00715-.5161-.19955-1.01855-.4017-1.50605-.6071-.25545-.1079-.50635-.2184-.7527-.32825-.39455-.17485-.77805-.35165-1.14985-.53105-.36335-.1742-.7163-.35035-1.0569-.52845-.0416-.0208-.0806-.0429-.1222-.06435-.0572-.0585-.12285-.10855-.17745-.1703-.0065.02275-.01235.0429-.01755.06565-.38675-.2067-.75855-.4147-1.11605-.6266m-.1638-61.67265c-1.9487 1.7238-3.05435 3.61985-3.1031 5.69985.12025 5.19935 6.7496 9.2599 17.0339 12.3149 10.3298 3.0251 24.5362 4.8828 40.2337 4.88605 15.6955501-.00325 29.9019501-1.86095 40.2330501-4.88605 10.28365-3.055 16.91625-7.11555 17.03325-12.3149-.0468-2.0813-1.15245-3.978-3.1044-5.70245 1.6718.9971 3.0134 2.0358 3.99555 3.09205.37245.39975.6903.8008.9555 1.2038.66885 1.0075 1.0153 2.0228.988 3.02445.1196 4.29195-6.3882 8.827-17.3446 11.98795-10.907 3.19735-26.03965 5.18505-42.7550501 5.18505-16.7141 0-31.8474-1.9877-42.75505-5.18505-10.95575-3.16095-17.46355-7.696-17.34395-11.98795-.0065-.2613.01235-.52325.0533-.7852.117-.75075.44395-1.5041.94315-2.25485.97305-1.4625 2.64355-2.9094 4.93675-4.27765m14.21615-5.43465c10.62945-2.74365 24.61875-4.41805 39.94965-4.415453C104.792003 2.64645 118.777403 4.3202 129.407503 7.06255c10.19135 2.9497 16.2279 7.1773 16.10765 11.13645.12025 3.9637-5.93515 8.19975-16.1577 11.1488-10.17835 2.9822-24.2983 4.8386-39.8950501 4.8353543-15.5987.0032457-29.71865-1.8531543-39.8931-4.8353543-10.22515-2.94905-16.2773-7.1851-16.1564-11.1488-.1209-3.9585 5.9098-8.18545 16.10115-11.1345m25.40655 77.5697c1.872.1339 3.7765.24375 5.71025.3263-.1274 9.9294-.0208 19.8588-.13325 29.7882-.0572 4.9153-.3796 9.7825-.7826 14.63735-3.53795-.1768-7.0265-.4277-10.44095-.75075 3.4086-14.3754 4.30885-29.27665 5.64655-44.0011m-34.89265 25.64445c4.5201-9.45035 9.09025-18.8474 11.45365-29.02835 2.3634.55315 4.8672 1.0543 7.49385 1.5002-.4459 3.43785-1.3364 6.81785-1.94545 9.3847-1.6705 7.03365-4.57535 13.54795-7.75385 20.0044-2.02215 4.1106-4.3316 8.1094-6.65535 12.10235-2.5428-.6435-4.94845-1.33185-7.1591-2.0696-.33215-.1105-.64675-.2262-.97305-.3393 2.1203-4.03845 3.90845-8.14775 5.5393-11.5544m-5.32285-1.20965c5.824-8.89265 9.65575-18.7304 12.61455-28.886 1.08095.30355 2.1892.598 3.3423.87815-2.6494 9.89365-7.66805 19.20035-12.30905 28.2386-2.0423 3.9793-4.53245 7.71485-7.20655 11.30285-1.235-.48685-2.4089-.98995-3.5269-1.5067 2.77485-3.4307 5.16945-7.10125 7.08565-10.0269m.6188-10.9291c.7436-1.04325 1.43-2.09885 2.08-3.1642-1.89995 3.37415-3.9754 6.65405-6.17305 9.82995-2.76705 4.0027-5.89615 7.73435-9.2482 11.25475-.40235-.25675-.80795-.51155-1.1856-.7722 5.6342-4.99395 10.4767-11.46795 14.52685-17.1483m-14.28115 6.53185c1.34875-.92625 2.7196-1.82325 4.07745-2.7352-2.9913 3.0537-6.17045 6.0125-8.9947 9.1871-.42185-.50895-.8112-1.02115-1.1297-1.5379 2.01955-1.5743 4.04885-3.21035 6.04695-4.914m-4.4655-4.0989c.09425-.04875.18785-.09945.28145-.15015-.18005.12025-.3601.2418-.54145.36335.0871-.07215.1716-.14495.26-.2132m24.47965-12.76405c1.17845-2.81515 2.11965-5.70245 2.8574-8.66645.16185.0546.3198.1105.48555.1638-.9477 2.899-2.0735 5.7317-3.34295 8.50265m17.65075 31.5679c3.3397-10.7536 7.44445-22.2027 7.1305-33.592-.00975-.36595-.5681-.3679-.56875 0-.0455 10.6392-4.4486 21.01905-7.74735 30.99135-1.08615 3.28185-2.262 6.5741-3.50545 9.8579-2.6533-.45565-5.2143-.95485-7.6583-1.49825 2.56165-5.0882 4.81195-10.3077 6.7145-15.3829 2.52265-6.7288 4.7905-13.5434 6.09505-20.6193.38155-2.06505.45175-4.1678.43485-6.2764 4.4642.7371 9.2677 1.3156 14.3338 1.7056-1.8226 9.373-1.86095 19.01315-3.3696 28.45245-.8333 5.2052-2.0683 10.3181-3.31825 15.4258-3.83955-.3991-7.56925-.88855-11.1449-1.4586.92105-2.4843 1.7966-5.0063 2.6039-7.60565m47.4097001-3.4502c-2.01305-9.76885-2.72415-19.7808-2.8197-29.7375-.00715-.6604-1.02635-.6604-1.02375 0 .0338 13.4732.884 29.05305 5.16165 42.6933-1.91815.15795-3.8532.2977-5.8071.40885-.7306001-3.9013-1.4976001-7.80065-2.0026501-11.73705-.94965-7.4074-1.83885-14.75305-3.09595-22.1169-.0429-.2522-.47125-.19435-.4472.0611 1.04 10.75685.7969 22.8683 3.08555 33.91635-2.6715.1261-5.3651.208-8.07235.24375.03965-12.36495-.5057-24.8781-3.0238-36.66065-.0624-.2951-.56745-.23205-.5304.07215 1.4768 12.1966 1.1414 24.40555 1.2883 36.59565-2.4934-.0286-4.97575-.0949-7.4412-.2002.17875-4.18795.21385-8.37265.28405-12.4449.18135-10.6834-.195-21.3577-.42055-32.03785 2.6884.1066 5.42425.16575 8.21145.16575 7.81105 0 15.2717501-.4342 22.1383501-1.22005-.41535 9.98985-.69355 20.06225 1.53335 29.87595 1.0946 4.8204 2.7911 9.45815 4.7983 13.96525-2.72675.3575-5.5211.66885-8.37135.9295-1.30975-4.186-2.5428-8.3967-3.445-12.7725m39.00455-30.9439c-1.222-1.8161-2.38225-3.7193-3.5191-5.72-.5109-.90155-1.87915-.28665-1.63865.6903 1.9357 7.8416 6.6183 14.4326 12.3084 20.01545 1.0764 1.05625 2.6273 2.39135 4.41285 3.71735-.13975.41405-.15665.8749.01885 1.35915.0598.1638.11895.32305.17875.48555-.11245-.00975-.22555-.0091-.33735-.00065-1.9669-1.67375-3.83955-3.46255-5.6433-5.28905-5.3846-5.44895-10.7939-12.19855-14.2428-19.0736-.1703-.33735-.69355-.09815-.59865.25285 2.25875 8.40515 6.565 14.85055 12.3513 21.3109 1.01465 1.1323 2.17685 2.3933 3.44045 3.6686-.76375.10985-1.4248.58305-1.81025 1.23435-1.00945-1.02765-1.96625-2.03775-2.81255-3.0329-5.87015-6.90495-11.65645-13.92365-15.3777-22.2482-.182-.40625-.81315-.11245-.70395.2964 2.2789 8.41945 6.29395 15.94255 11.3828 22.98985 1.09915 1.521 2.34325 3.2656 3.70175 5.0583-.50505-.00585-1.00295.1248-1.4339.35815-1.5249-1.625-3.1096-3.1694-4.42325-4.654-4.76515-5.38785-9.6213-11.5193-11.20795-18.72585-.1196-.54405-1.0231-.42965-.97825.13325.5278 6.5975 3.13755 11.76045 6.4688 17.32835-3.76285-5.2884-7.14675-10.70745-9.5173-16.9507-.04615-.12025-.2119-.07345-.19175.05395 1.8421 11.92035 7.8975 25.07895 16.5529 34.73405-.4758.14365-.97565.2808-1.46575.42055-2.82815-3.4502-5.2416-7.2163-7.5309-11.0422-4.9855-8.33495-7.8962-17.4616-10.8706-26.63245-.08385-.26065-.46215-.21125-.4745.06435-.3861 9.4081 2.9926 18.5705 6.87505 26.98345 1.0621 2.2997 2.49925 5.2806 4.23865 8.2927-.1625-.23335-.3328-.46345-.49205-.69745-4.74825-7.0265-7.7857-14.36305-9.94045-22.5576-.12805-.48815-.93275-.4004-.89375.1209.4381 5.8812 1.96755 12.41435 4.42325 18.69075-.2093-.455-.4238-.90935-.6292-1.365-3.8844-8.5618-5.8513-18.4886-6.46945-27.84925-.04225-.65585-.9932-.663-1.02375 0-.43225 9.56215.45435 18.45805 3.0576 27.7225.9685 3.4489 2.4765 7.6817 4.53635 11.61485-1.27335.21385-2.56685.4173-3.8805.6097-1.53205-4.0833-3.1096-8.1536-4.36605-12.35325-3.02575-10.10295-3.56135-20.7129-4.01245-31.18115 7.5218-.9048 14.29935-2.236 19.97775-3.89935 3.6348-1.07965 6.8302-2.2802 9.5004-3.59905.92235 3.42095 1.95195 6.2842 3.0602 8.66515m12.66135 12.80175c-.06175.0065-.1183.0234-.1716.05395-.19305-.13065-.3692-.27235-.559-.40495.247.1209.4901.23725.7306.351m3.38455 1.79075c-.9568-.4368-1.94545-.91715-2.8106-1.5197.58175.27235 1.14075.5356 1.67895.7982.37245.2522.75205.4849 1.13165.7215m-7.02715-5.19545c-3.93445-2.6897-8.0028-7.4386-10.97005-18.62575 2.9224-1.57235 5.0921-3.31045 6.35115-5.21625l.208.0741c.0013-.00585.1547-.44005.4108-1.19925.2392-.52585.42835-1.06145.5291-1.612 1.6172-5.03685 4.75475-15.8496 4.7632-24.10655-.00715-14.3104-5.29685-27.70365-5.30725-27.7407l-.15405-.3887-.7891.0078c-2.6793-3.5659-8.60015-6.52665-16.62115-8.9076-.94575-.27625-1.9292-.54015-2.93215-.79755C119.303903 2.8525 105.124803 1 89.4624029 1c-15.6871 0-29.8844 1.8564-40.2142 4.8802-.0065.00195-.0143.0039-.0195.0052-.00195.00065-.00325.00065-.0039.0013-.9776.25155-1.93765.5083-2.85805.77805-10.1075 3.0004-16.89025 6.92055-18.03165 11.81505-1.6601 2.97895-4.84185 10.8329-4.83925 27.23825 0 15.93085 5.72065 24.5492 5.7681 24.62135l.02275-.01495c1.2831 2.06375 3.627 3.93315 6.8328 5.6121.04615.0234.08905.04875.1339.07215-.74685 2.7768-1.5626 5.1584-2.4284 7.2007-.6734 1.58665-1.37345 2.9783-2.09625 4.19315-2.1021 3.53925-4.37515 5.6537-6.5988 7.1318-.6812.28535-1.34745.5759-2.00395.86905-.30095.26715-.6045.5317-.90805.79495-1.1115.5473-2.20285 1.0309-3.2461 1.53985-.01365.00065-.02665.00325-.03835.00325-.0325.0221-.0637.04095-.0962.0637-1.04.5122-2.02865 1.0608-2.9224 1.7485-.77805.3965-1.56065.74555-2.35235 1.001l-.0143.0039-.2431.0793-.05655.1222c-7.7064 5.1467-12.2135 11.1839-12.2486029 17.8035-.0032471 9.3652 2.7579529 23.13415 14.5970529 34.77565.312.30615.60255.61685.9269.9204 1.47615 1.38125 3.09075 2.72675 4.84315 4.0287.6279.46735 1.27075.93015 1.93505 1.38515.2899.1976.58695.39325.884.5889.728.4797 1.4716.95225 2.24315 1.41635.05005.0299.10075.0585.14885.0884.84565.50505 1.71925.9997 2.61885 1.4859.26845.14495.53885.2899.8125.4342.3731.1937.7462.38675 1.12645.5772l2.2932 1.1037c.2405.3068.48165.61425.72215.91975-.1365-.25805-.26975-.51805-.4056-.7787.77415.35295 1.56845.69745 2.37835 1.03545.66755.2769 1.3455.5499 2.0371.81835.4602.1768.9217.3549 1.39165.52845.4134.1521.83395.30095 1.2558.4485 12.4046 4.36345 28.5259 7.08695 49.4325 7.08695 40.3552501 0 62.4897001-9.3353 74.5368001-21.17765.49465-.4862.94315-.98085 1.40335-1.47355.1196-.12935.24895-.2561.3666-.38545.28405-.3107.5577-.6227.82875-.9373 9.7045-11.2346 11.2931-24.05845 11.289207-32.88935-.048757-9.60375-9.499757-17.98095-24.525157-24.1839"/></g><g fill="#197C01"><path fill-rule="nonzero" d="M218.6765445 81.9885365C193.7933396 81.6738947 176 74.8971295 176 63.5c0-5.8405358 5.1807856-9.8353508 13.9760719-12.3731813l.8767115-.2449377C197.9416719 48.9643947 207.1795583 48 216 48c11.2775427 0 21.0965131.5555075 29.4860572 2.0953605 11.259245 2.0665703 18.2441845 5.690511 19.3570847 11.6650937l.0459018.2690922 12.3332983-.0275947C300.951818 62.1306999 314 68.6224952 314 79.5c0 10.2493608-16.284135 19.5-42.5 19.5-23.7613266 0-48.5230109-7.9714734-51.9678771-16.7374219l-.0993828-.2664869-.7561956-.0075547z"/><path d="M204.9376858 95.7854761l-1.8841643-.3194399-1.1823803-.2099996c-5.0223635-.9193062-8.6594782-2.0000698-8.2379168-4.8198578.4953941-3.3136484 6.9178518-5.1553349 13.3357766-4.171724l.3156059.0506581c6.5213655 1.0942565 11.5825452 3.4892185 11.3044614 5.3492973-.2780839 1.8600788-7.1300171 5.2153225-13.6513825 4.1210659z"/></g></g></svg>