<svg xmlns="http://www.w3.org/2000/svg" width="617" height="277"><g fill="none" fill-rule="evenodd"><g fill="#197C01"><path d="M44.0393548 276.7291824c4.3638817.691171 8.2516972-.9595399 8.6836791-3.686966.4319818-2.727426-.6236416-6.1735659-4.9875233-6.8647368-4.3638816-.691171-10.3835083 1.6343593-10.8154902 4.3617854-.4319818 2.727426 2.7554528 5.4987465 7.1193344 6.1899174zM134.399744 276.7971007c8.560414 0 11.5-4.9101491 11.5-8.5 0-3.5898508-6.939586-5.5-15.5-5.5-8.560413 0-15.5 2.9101492-15.5 6.5 0 3.5898509 10.939587 7.5 19.5 7.5z"/><path fill-rule="nonzero" d="M68.145062 210.12614404l2.0272877-.3894111 2.0491223-.38336202c9.114086-1.68037768 16.8049564-2.75533913 23.9151346-3.173366 11.7244624-.68931329 20.1247424.53285812 25.0571744 4.85284579 2.71688 2.37953405 4.4184 5.15323799 4.944993 8.04478279 4.292288.7615253 9.039586 2.4234417 13.445954 4.6501094l.785801.403999c6.982917 3.653671 11.528954 7.78792 11.528954 12.6624387 0 5.0777537-3.358791 8.8657195-8.875925 11.6506452-4.055201 2.0469745-9.481949 3.6616323-16.170074 4.9616721-3.892819.7566872-14.068169 1.1378812-21.60814 1.039737l-.928126-.0147721c-.043831 6.2498923-3.593031 10.4315918-12.1476692 12.0944449-15.5391367 3.0205022-34.6124379-.3252699-42.3006122-7.0588284-.5687537-.4981334-1.0794379-1.0265974-1.5264056-1.5834582-13.6678152 1.2185889-25.8886938-.3660321-31.0179199-4.8583787-2.3361978-2.0461197-3.4228047-4.7856594-2.9611886-7.5825991-4.7133342-.9346597-8.52541984-2.4777542-11.01413541-4.657454-5.08606099-4.4545412-4.1195706-10.6228223 1.14336464-14.8223089 3.77375704-3.0112174 9.93294827-5.3947307 17.51593267-6.8687136 9.3176995-1.8111773 19.4497168-1.9692963 27.300044-.5292494l.6314518.1202616.2600913-.2807968c3.7028077-3.90546999 9.9827887-6.73056235 17.9448905-8.27823816z"/><path d="M33.5104777 266.7041263c1.3773485-.0963136 2.4158325-1.2909528 2.319519-2.6683013-.0963136-1.3773486-1.2909528-2.4158326-2.6683014-2.319519-1.3773485.0963136-4.4109606 1.4304657-4.314647 2.8078143.0963136 1.3773485 3.2860809 2.2763196 4.6634294 2.180006z"/></g><g fill="#010410" stroke="#010410" stroke-width="1.5"><path d="M94.593383 222.795427c-.143552-.030221-.160517-.050588 0 0m1.735675-5.880683c-.022838.011169-.026753.032193-.040456.047303-.085479-.026279-.169652-.059129-.261004-.075553-.861312-.155706-1.60974-.174102-2.394056.260166-.749081.415873-1.243031 1.107679-1.502729 1.922342-.506348 1.595819.514177 3.353914 2.080199 3.812491.403904.116943.825425.145851 1.236506.093292.781053.033506 1.594732-.293016 2.133053-.823204.655119-.640562 1.124926-1.830364.794103-2.744231-.291019-.802837-.773223-1.704222-1.525566-2.190392 13.30336-4.974699 26.345716-10.550541 39.493779-15.94177 7.309409-2.993885 14.665799-5.818269 22.122676-8.415992 3.361075-1.171407 6.754776-2.251492 10.15435-3.315153 1.554277-.487483 3.310832-1.141185 5.113716-1.739042.054158.096577.092656.193811.154644.291702 2.750327 4.335452 8.458479 1.718676 11.407168-.735825 1.19083-.99402.752996-2.917675-.426088-3.678465-.67078-.425727-1.34417-1.003218-2.028652-1.572168-.297544-1.294263-1.474671-2.16674-2.99045-1.917086-.00522 0-.01044.001314-.020228.002628-.923301-.304184-1.90076-.294987-2.957172.32258-.456757.268708-.765394.678667-.941571 1.13593-1.582988.965769-2.801875 2.340841-2.807748 4.033895-1.164076.305498-2.313798.610997-3.394353.965112-3.378693 1.107022-6.708449 2.353982-10.038856 3.598971-6.945962 2.590496-13.808402 5.425391-20.670843 8.237292-14.344765 5.883968-28.463762 12.2817-42.690422 18.425177"/><path d="M209.806409 190.04762c.225346-3.003339.005196-6.022299-.767604-8.974866-1.428707-5.453396-6.67011-8.524429-8.93331-13.483127-.327953-.717312-1.511181-.25516-1.287134.496651 1.265054 4.226414 4.243906 7.095663 6.493469 10.787022 2.624273 4.304525 1.753412 9.156472 1.735878 13.899065-2.386589 3.371758-4.223775 7.112587-6.840905 10.348303-3.648396 4.506961-9.189827 5.897974-14.720219 5.905134-9.105403.006509-17.86532-3.52863-26.973322-3.81959-10.056142-.319601-20.934441 3.342466-30.419101 6.289175-5.394015 1.675464-10.703606 3.616503-15.993715 5.589438-5.027747 1.875947-10.634769 3.598278-15.137791 6.569721-.829948.316997-1.648207.414635-2.606739-.112609-1.442994-.792819-2.465168-2.346561-3.174326-3.787044-.390296-.798677-1.116988-2.703265-.140922-3.404955.461732-.334573 1.315059-.261019 2.085262-.270783.140273.029943.293534.02083.455237-.024734.455887-.041008.840339-.160126 1.028669-.48168 9.232688-4.823307 18.525123-9.522939 27.827948-14.204345 8.207916-4.132682 17.113951-7.881323 24.443213-13.493543 11.447832-8.76592 23.477538-27.067147 40.074557-22.159872.051953.01367.101308.009113.148066.011066.060395.168588.201318.305281.390946.301375 5.970043-.119769 12.099192-2.218981 17.867918-3.647097 5.544679-1.369532 11.034157-3.391936 16.355438-5.45665 5.177111-2.009386 10.814006-4.919643 16.528831-3.74148 6.225911 1.283611 10.327597 10.222025 5.700537 15.125395-.125336.131486-.208461.270782-.266908.413984-6.869479 1.492557-13.099287 5.316703-18.832295 9.269732-5.053723 3.485018-10.731531 7.383369-15.041678 12.056314m18.169895-38.693204c1.052697-.262321 2.076819-.434163 3.079511-.524641-1.009186.204389-2.017723.468662-3.021713.770037-.018833-.082016-.041563-.163381-.057798-.245396m2.526212-12.239873c5.459606-1.795234 9.114496 3.096419 12.843419 6.681028 1.952132 1.878551 3.580857 4.18085 4.964104 6.667359-.120791-.130835-.240282-.268829-.365619-.398362-5.052424-5.268535-14.474092-7.626162-20.281132-2.707171-.361723-3.892493.686428-7.70297 2.839228-10.242854M579.5562003 42.6419c5.8382127-2.3641363 11.7381195-4.5466663 17.7302428-6.4564614-5.9544574 2.0100366-11.8602089 4.204934-17.7302428 6.4564614M487.308543 80.7707576c.338993-.1262782.677337-.2532073 1.019577-.3768819-.676687.2942152-1.355972.5832231-2.03201.8780892.335746-.1672861.674739-.3326194 1.012433-.5012073M238.681209 173.477836c-.09936.146457-.168197.303328-.232489.466058-.007793-.013669-.016885-.026037-.028574-.038404-.059097-.08462-.13248-.14125-.200669-.19853.153262-.076809.30977-.152966.461732-.229124m13.583748 4.387842c.244829-.33327.483812-.66654.720848-1.00632-.25392.619675-.536415 1.102656-.849431 1.463265.061045-.151013.100659-.303328.128583-.456945M241.818518 137.2067c7.498109 3.410814 12.280378 11.327285 16.106713 18.262823 3.76529 6.822277 6.987023 16.447411 3.514617 24.004575-.17664.382089-.379906.726425-.602005 1.055139-1.107896.408126-2.241769.765481-3.395125 1.081176 3.233422-4.463349 3.099643-11.79139 2.03201-16.609489-2.041102-9.233931-7.019493-18.493248-14.433179-24.409447-2.277487-1.816714-5.214128-3.811779-8.086476-4.529775 1.480659-.003873 3.106137.34567 4.863445 1.144998M588.8447382 7.06919961c.1545601.10089238.3363954.16728608.5662872.15036219 1.6326214-.12562728 3.2743346-.00520735 4.8582502.32871388 1.5098826.91388969 2.6905133 2.10311793 3.5529323 3.46809422-15.8411037 5.2053959-31.3139909 12.0999254-46.8089581 18.2146546-1.3929884.5506771-2.7879251 1.0941941-4.1809136 1.6435694-5.3647914.8683254-11.0146747 3.5644301-14.7585341 5.2171124-2.2690451 1.0030655-4.4926313 2.0861941-6.6941375 3.2116323-5.9628998 2.334194-11.9257996 4.6651334-17.8899986 6.9941201-2.191765.7322834-4.37184 1.4964618-6.526589 2.3205248-4.771229 1.8277793-9.502844 3.7584038-14.198092 5.7684404-9.867813 3.8488816-19.739523 7.7003668-29.605388 11.5583612-65.304208 25.5381396-130.647381 51.0300639-195.772351 77.0264499-1.951483-1.862278-4.067916-3.522771-6.328519-4.962603-.931906-.87158-1.911868-1.673512-2.93729-2.378457 26.34599-8.080503 52.141279-18.290812 77.885265-28.031157 38.416608-14.5298048 76.640341-29.5718822 114.89135-44.5345476 27.666894-10.824776 55.24287-21.9008065 82.9896412-32.5192413 8.3533849-3.1953593 16.7243038-6.3405979 25.1549687-9.3283142 6.5032105-2.3081572 12.7836726-5.1136163 19.1018007-7.8865295 1.813158-.7960734 3.6639818-1.6344565 5.5414315-2.46633047 3.7146359-1.2855642 7.4331682-2.55420451 11.1588441-3.79485532m17.57957931 23.44934179c.36172241.0514226.73838129.031895 1.11698841-.0702992-.01168941.0553281-.01623529.1100053-.02337882.1646824-.55394833.0501208-1.10724724.1100053-1.6605462.1698898.1889789-.087874.37665893-.1750971.56693661-.264273M386.573073 119.090985c.826701-.485585 1.638466-.98549 2.433996-1.506225-.076631.144504-.134429.290309-.174043.43937-.752019.356052-1.507934.710803-2.259953 1.066855m-24.310084 11.669669c1.541054-.788263 3.154194-1.553092 4.809544-2.31011-2.043049.993301-4.0848 1.988556-6.123304 2.989018.439002-.225218.874758-.454341 1.31376-.678908m-116.52527 6.711621c.524075.272735 1.040357.576063 1.546249.921701.038316.029291.079229.057932.120142.086572.359774.253207.711106.523989 1.05919.807139.128584.101543.248076.209596.373412.31179 1.260509 1.073365 2.437243 2.325081 3.52241 3.66337.223398.315044.444198.629438.659803.94969-2.403474-2.670719-5.119964-5.066099-8.014392-6.785175.233788.043611.475369.066393.733186.044913m-2.162542-.861165c.005845.009764.013638.02148.021431.02864-.050005-.025386-.104556-.043611-.156509-.069648.045459.009113.08897.029291.135078.041008M598.7216433 12.7588789c-.26496.1223727-.5279718.2453963-.7935813.3658163-.1532612-.0371024-.30912-.0611864-.4727718-.0742048.3864001-.1783517.7728001-.3573543 1.1579014-.5376587.0350682.0820157.0746823.1633806.1084517.2460472M305.886895 154.630489c-10.673733 5.068052-21.384483 10.21812-32.188748 15.014088.358475-4.061081-.602655-8.320692-2.40802-12.480062.825403-.197228 1.656001-.429606 2.487248-.753113 4.363398-1.702803 8.693677-3.47916 13.020058-5.275695 10.273047-4.269375 20.49414-8.663726 30.740561-12.995589 22.01766-9.310089 44.21196-18.523841 67.047229-25.654654 2.267746-.709502 4.548481-1.368882 6.834411-2.008084.900085-.251255 1.803416-.486236 2.70545-.718614-3.98674 3.956283-9.519729 6.601616-14.414346 9.068597-7.782552 3.923087-15.793697 7.389228-23.619759 11.227695-16.730149 8.203527-33.370679 16.582151-50.204084 24.575431m-36.998942-3.624966c-.211059.151013-.406532.313092-.611746.465407-.129882-.203737-.252621-.406173-.385101-.607958.299379.116515.638372.165984.996847.142551M573.0257145 47.4268025c12.5843032-5.1442096 25.2777076-9.9746764 38.06592611-14.582529.42926124-.1555695.37471065-.7492073.01883294-.8364304 4.31274422-3.6152017 5.64923385-8.817343 4.49328072-14.389857-.62213657-2.99748-2.30021684-5.7508656-4.17247125-8.11500192-.5961601-.75116004-1.26180727-1.37474004-1.95537914-1.94038829-2.39373215-2.4982255-5.22127138-4.46465053-7.89814718-5.48008352-.4351059-.39380574-.865666-.49795271-1.2475202-.42179524-.2311906-.48233066-.7176001-.80453536-1.3864943-.59624142-.2824942.09047769-.5643389.1855118-.8487813.27533856-1.4131202-.03124409-2.6755769.33457215-3.6698265 1.18662457-.2591153.08331758-.5195295.16728608-.7799436.25060366-7.8903542.78305505-16.0131979 4.05066632-22.9911284 6.6810283-6.9584482 2.6238528-13.8545528 5.3271177-20.8818387 7.7524403-10.9153146 3.7688186-21.7208787 7.8539836-32.536184 11.8987916C482.276251 42.1803987 447.51648 55.768975 412.714498 69.2508006c-12.831079 4.972367-25.664757 9.9239047-38.504928 14.8604712-23.685999 8.9123771-47.38174 17.8045762-71.158007 26.4754622-20.718187 7.555863-41.431178 15.450203-62.505892 22.015368-.479266.065743-.965026.149061-1.454683.264273-.363021.085921-.635774.243444-.842936.440021-1.457281.445228-2.910664.903475-4.371841 1.335685-.351981.1061-.705911.206992-1.056593.305281-.509789.144504-.671492.594939-.583172.982887-5.258937 2.860787-7.780604 10.510382-6.620105 16.468891-4.121817 1.482792-8.18194 3.451821-12.066722 4.816146-8.363775 2.934341-17.388002 4.533648-25.602413 7.740724.020781-.258414-.083774-.510971-.383153-.644409-14.316285-6.330183-27.133077 8.00044-36.583319 16.832103-7.250034 6.775412-15.465744 11.005732-24.260079 15.499023-11.023117 5.6337-22.210535 10.951054-32.985577 17.054717-1.918363-.629438-4.378984-.048168-5.282966 1.888966-.885797 1.901984-.321459 4.226414.423417 6.069816 1.580668 3.899002 8.273507 8.194414 10.98675 2.818477.048706-.095685.072734-.19137.095463-.288357 4.353008-1.048629 8.635879-3.002687 12.749904-4.546666 5.880424-2.204661 11.808905-4.273931 17.806873-6.132304 11.578364-3.581354 23.81783-6.80991 35.939102-4.759516 8.17155 1.383201 16.264521 3.867107 24.615957 2.548997 8.272858-1.307045 13.023306-8.122162 16.843796-15.02255.409129.027989.851379-.180956.961779-.610562.170146-.654824.311717-1.318761.442899-1.980094.14352-.272735.285741-.544819.429261-.814299 5.871982-3.349627 11.022468-8.472357 16.533377-12.263306 2.645704-1.821271 5.369986-3.442709 8.150119-4.943727 2.083962 6.655643 7.250683 10.017637 13.616218 10.889217 3.098344 1.279055 6.4597 1.484745 9.710007-.03515.353929.553932 1.053346.916494 1.820301.56695 58.376932-26.70784 116.364866-54.229979 175.008056-80.37152 5.153733-2.296441 10.315258-4.585722 15.476784-6.8684931.830598-.359958 1.662494-.7238215 2.485949-1.0980996 39.932335-17.6366389 80.0672876-34.8039656 120.4775905-51.3184208"/></g></g></svg>