<svg xmlns="http://www.w3.org/2000/svg" width="313" height="545"><g fill="none" fill-rule="evenodd"><g fill="#197C01"><path fill-rule="nonzero" d="M245.9885848 486.40832151c1.1013321.97248214 2.0497005 1.99318873 2.8336346 3.03881419 6.474526-.61743331 11.6936133-.2689072 15.9180761 1.0323759 5.8246891 1.7942089 10.1012785 5.5751867 11.9312145 10.1976315.290943.7349265.509706 1.4570588.665934 2.1706207l1.233474.168443 1.219512.1753184c12.123245 1.7879188 22.05892 4.6232658 27.003916 8.9897231 4.319557 3.8141917 5.189485 8.1115079 3.295939 11.4147221-1.217891 2.1245618-3.594964 4.0160529-6.943404 5.7779604-5.660094 2.9782717-14.132143 5.51401-21.839441 6.6641013-12.0218625 1.7939156-31.4088564-3.2676422-43.1842764-10.1430687-3.0220235 1.925867-7.234147 3.3216266-12.3238115 4.0811119-15.1981643 2.2678867-34.0147851-1.6137118-43.29758836-9.8104765-5.9722486-5.2735273-7.25890357-11.3233192-4.06538416-15.7002313 1.55143121-2.1263306 4.12969478-3.8836221 7.53378422-5.2038954l.4692939-.1773222-.2173401-.2899774c-3.05024555-4.1603327-3.3079905-8.4829573-.88706286-11.77281929 2.39946886-3.26070111 7.35737046-5.5839114 14.02685966-6.70237643l.8712203-.1377142.8044464-.11564859 1.0470426-.14007246 1.0299602-.12805327c16.8506337-2.01656815 34.9923134-.3487387 42.8740009 6.61083325z"/><path d="M233.1494804 544.5529046c6.0751322 0 11 0 12.5371094-6 1.5371093-6-3.3877584-6-9.4628907-6-6.0751322 0-11.6881873 2.6862915-12.5371093 6-.8489221 3.3137085 3.3877583 6 9.4628906 6zM296.235758 499.37784384c3.77012257-1.65232738 5.00188992-4.81560205 2.75122912-7.0653718-2.25066079-2.24976965-10.50641161-2.42687948-14.27653519-.77455195-3.77012258 1.65232739-1.62694924 4.50838938.62371157 6.75815912 2.25066078 2.24976966 7.13147092 2.73409216 10.9015945 1.08176463zM308.71285638 505.96828392c2.6183292-.4147026 3.89707353-.96465896 3.63788443-2.60111454-.25918911-1.63645567-1.95816202-3.7397181-4.57649122-3.3250155-2.6183292.4147026-3.89707355.96465887-3.63788443 2.60111454.2591891 1.63645558 1.95816202 3.7397181 4.57649122 3.3250155z"/></g><path fill="#010410" stroke="#010410" stroke-linecap="round" stroke-linejoin="round" stroke-width="1.5" d="M58.9624723 193.798572c5.3919316 4.805555 14.0794684 7.052182 21.0460937 8.681455l2.5220189.58583c9.4084539 2.1954 18.9149071 3.703703 27.6840771 7.957686 9.016027 4.369828 18.532835 9.859326 26.348753 16.874254-6.750018-13.71388-13.884389-27.245466-21.066363-40.760492-18.4778651-14.442147-43.1459305-20.968616-66.3383472-17.564257.9509845 2.749469 1.9308798 5.48961 2.9640869 8.21173 2.0096073 5.301658 4.2196711 10.772372 6.8396806 16.013794zm32.237867 27.394652l-.8446176-.31185c-7.2980539-2.839492-13.4313741-6.942899-19.9460102-11.104437-.0289377-.018942.0048389-.063804.033223-.044126 7.4732837 4.678088 17.1986052 6.651676 25.705128 8.867156l.7473242.196186c8.1376893 2.156545 16.3315143 4.427491 24.1469283 7.578192 7.608325 3.065426 14.847554 7.240745 20.742658 12.993216.200393.196681.386975.397935.581661.596077-.976628-2.080442-1.962285-4.15501-2.958723-6.222144-10.234989-10.815701-24.300381-18.231585-38.6138169-22.444597-9.306917-2.740311-18.9844519-3.988491-28.2411218-6.974555-4.3921537-1.415796-7.9542391-3.11473-10.9425696-5.621615 1.9702175 3.425352 4.1388638 6.701143 6.6153134 9.67522 5.7676255 6.936205 14.2646581 10.304648 22.9746232 12.817277zm48.9332237 24.951721c.528017.518145 1.044337 1.041882 1.55209 1.570112-1.832815-2.441952-3.851362-4.774924-6.283809-6.878705-3.216044-2.785859-6.819161-5.006359-10.596515-6.914347 5.485329 3.465374 10.594267 7.572192 15.328234 12.22294zm-13.843319-2.881247c-14.600163-6.596982-30.4030819-8.475959-45.8003546-12.196541 1.0264368 2.145104 2.0435828 4.289543 3.0482966 6.439019 3.5798429 2.138953 6.8529841 4.540672 10.8312833 6.125159 4.8113689 1.91703 9.7070387 3.582859 14.6538197 5.107361l4.036132 1.247256c8.970983 2.785022 17.932329 5.704624 26.45104 9.671428 5.408289 2.518851 10.698729 5.714441 15.546458 9.504916l-.652398-1.642774c-.334362-.832732-.682625-1.661535-1.021677-2.494922-6.823047-9.400078-15.850233-16.680531-27.0926-21.760902zm-15.902136 62.268387c.726944 2.393705 1.418354 4.796354 2.097433 7.200081.114822-.080592.24894-.150091.409488-.190432 13.036559-3.534512 29.195701-.807468 41.603059 3.857823 8.597266 3.230726 16.354874 8.234585 22.892633 14.544963-1.64586-5.125329-3.397457-10.400165-5.260206-15.830319-1.471027-1.133082-2.917286-2.314361-4.077076-3.762134-.125405-.158574.099548-.399975.247895-.255806 1.098592 1.053975 2.265653 2.020071 3.463711 2.949587l-1.213693-3.499389c-2.252632-6.453919-4.657654-13.11936-7.231268-20.004001-5.674149-4.894578-12.28366-8.767921-18.954253-12.084291-13.31554-6.623198-27.758639-10.543121-41.113801-17.060143-.178008-.088708-.071893-.343635.115288-.283176l1.707524.549426c17.268209 5.520385 40.18836 11.87962 56.42263 24.038104-.806053-2.119563-1.626499-4.262087-2.462907-6.424722-6.973113-7.314981-15.382998-13.614457-23.969597-18.884366-9.045268-5.551726-19.129862-7.74928-29.165681-10.819231l-2.021108-.628048-1.14014-.360661c-5.9790162-1.908156-13.2471389-4.528706-18.1089948-8.741929 8.0670551 17.358032 15.4847846 34.938924 21.6678938 53.047269.075903-.03961.15575-.074515.247695-.088766 15.402379-2.504306 33.116678 1.739817 46.980204 8.358903 1.057714.50543.371784 2.203675-.695211 1.692976-7.537147-3.611326-15.407112-6.284876-23.705889-7.445613-7.434218-1.039089-14.888726-.215173-22.28972-.938062 1.237402 3.666534 2.42738 7.350918 3.554091 11.061957zm42.980778 114.726555c15.702835-1.290697 27.096767-20.484607 43.256-15.955288-.779801-4.014968-1.649057-8.217896-2.6154-12.611657-5.960979-3.030238-11.344487-7.323958-17.814807-9.471145-12.501563-4.147712-25.629792-1.078984-37.437512 3.763394-.179859.075935-.295256-.193855-.12044-.277628 11.278477-5.467529 22.166162-8.791107 34.88881-6.924564 6.54472.959742 13.438742 3.977063 19.358721 7.913227-.175164-.765706-.354737-1.534737-.537057-2.309298-4.372313-3.043342-9.088619-5.130238-14.148995-6.747909-10.422028-3.331691-21.244415-2.879524-31.801041-.688761-.683823.14092-.826833-.92454-.150357-1.071002l1.379911-.291181 1.384397-.283507c10.39884-2.093261 21.143751-3.39535 31.504784-.675006 2.367586.621632 4.822506 1.514371 7.253252 2.637359-.800538-.676406-1.609392-1.337175-2.449073-1.955471-6.923395-5.089008-17.509553-6.78206-25.859939-7.224747-6.18358-.329352-12.583676.55531-18.671564 1.543991-3.322401.537134-6.520906 1.488833-9.708552 2.55999-1.821622.613983-3.39637 1.73701-5.132152 2.47108l.847959 5.059636.310936 1.809855c.428978 2.457958.918324 5.086066 1.501423 7.774843.267852-.372586.662753-.638847 1.103842-.890857l.686165-.378838c1.456458-.814441 2.65577-1.190954 4.302339-1.137903.110122.002917.126289.17423.029781.212137-1.079781.40901-2.187778 1.005441-3.207046 1.545992-.991455.528089-1.655088 1.411807-2.655266 1.812248l.205272.893377.208345.877613c3.462377 14.346715 9.86874 29.187518 24.087264 28.02002zm63.42955-31.438488c4.99939 1.131789 15.787255 8.094172 19.749633 2.555258 3.485272-4.870809 1.935231-14.138244.997382-19.400664-.94124-5.26786-2.843065-10.349287-5.038964-15.297943-1.930407 3.592114-7.87105 6.925869-9.892332 8.265581-4.352518 2.880322-10.772663 3.679193-14.616355 7.417337l-.352657.359215c-1.703873 1.822394-3.979989 2.994126-5.634978 4.963504.937687 4.011822 1.841027 8.036368 2.717208 12.068679 3.508862-1.684454 7.547996-1.950265 12.071063-.930967zm.84265-63.924511c-3.333003-8.340646-5.126584-17.325928-7.668135-25.92061-1.5164-5.129735-3.119815-10.228817-4.788792-15.303551-.428405 6.745755-3.893051 12.645504-8.117941 18.308278l-.655674.869409c-3.860014 5.074763-7.077362 9.982178-9.4233 15.953832-.316507.805948-.585079 1.611728-.822285 2.420985 2.150115 6.414812 4.176495 12.865444 6.090191 19.346394 5.439475-9.08895 15.122439-16.768148 17.835931-26.981946.064952-.239274.488469-.128559.42562.116336-1.694362 6.625111-5.008417 11.928768-9.151905 17.243719l-.417084.531582c-3.200743 4.047661-5.705701 7.913266-7.820745 12.099462 2.206772 7.62327 4.268901 15.292533 6.196161 22.997867 2.120597-2.359047 4.845578-4.240939 7.872607-5.641934 3.828963-1.772229 7.974677-2.855878 11.890929-4.418143 5.555432-2.216991 7.586178-5.192653 8.526455-10.193944-3.427492-7.099746-7.042817-14.096134-9.972033-21.427736zM142.764525 222.16095c.626258-7.359723 3.751146-14.671206 8.169995-20.26711.134814-.172171.380485.019455.266356.198579-5.192266 8.131-6.457392 16.887774-5.495398 25.775699 1.01191 1.980794 2.015897 3.96599 3.016291 5.953663-.111135-4.446356.264439-8.935544 1.20443-13.452197 2.584553-12.437831 10.905957-22.683802 11.766478-35.216388-3.538347-6.303005-7.198109-12.539613-10.968886-18.71063-.794737 10.170034-5.230038 19.041432-10.095628 28.146957-.099887.186983-.407451.064557-.306729-.125831 5.004712-9.630737 8.595067-20.912772 8.042236-31.851234-1.343627-2.162944-2.698407-4.316428-4.069214-6.462397.246596 7.75571-3.003665 16.055344-5.347864 23.031458-1.794388 5.337785-4.334757 10.359706-5.569917 15.885769-.531159 2.370164-.894804 4.791718-1.101069 7.229924 2.567356 4.77278 5.117126 9.551321 7.630324 14.350131.959714 1.833618 1.904408 3.677239 2.858595 5.513607zm-23.944976 115.879972c6.701085-.743559 13.287839-2.381052 19.977486-3.271603 6.92581-.92575 14.045846.107569 20.757787 1.846628 9.089483 2.352057 17.532521 7.516575 23.990674 14.397053-1.707201-5.857077-3.559529-11.938336-5.575897-18.2615-6.450721-6.191118-13.91231-11.173502-22.419119-14.611583-6.566856-2.656998-13.573273-4.088327-20.598436-4.768751-7.456932-.723566-14.41676.792828-21.753222 1.334494-.059542.006404-.104122-.011652-.159415-.012421 2.139449 7.733343 4.043517 15.521501 5.780142 23.347683zm14.694386 10.595309c7.773729-2.050407 15.875018-1.950095 23.823394-1.128001 9.266932.962718 20.638251 4.378495 28.342129 10.983764-.627287-2.240714-1.271432-4.512589-1.942991-6.82532-7.310999-7.695495-17.202038-12.242705-27.841429-14.352374-6.72024-1.330223-13.556543-1.119307-20.242796.216571-5.486243 1.095376-10.566428 2.972629-16.13501 3.706112.924188 4.280679 1.801981 8.572488 2.644703 12.871861 3.043545-2.822924 7.954164-4.579006 11.352-5.472613zm57.795853-46.919968l-.526533.708848c-2.703748 3.65226-5.30511 7.350608-7.126877 11.510666.329166.931435.65345 1.865529.977 2.799069.779047-2.022358 1.731752-3.944875 2.854646-5.69868 5.992643-9.346283 16.236748-17.469357 17.124979-29.088589-.621329-1.870705-1.252242-3.734802-1.894298-5.594043.893039 9.295686-6.084928 18.214703-11.408917 25.362729h0zm-7.417472-39.919566c-2.035777 6.004948-4.588806 11.811766-6.621553 17.819575-1.173023 3.469776-1.914916 7.020264-2.672532 10.566389.928892 2.273896 1.862305 4.542553 2.761733 6.826512 1.417431 3.596493 2.78146 7.210363 4.10931 10.833268.283218-.532993.578484-1.064394.893973-1.587462 6.775786-11.269272 17.189585-18.768555 18.786547-32.639592.028806-.244051.236015-.410627.463292-.462329-4.050609-11.514837-8.494426-22.877696-13.301021-34.077734.281778 7.739581-2.283199 16.423455-4.419749 22.721373zm-5.412575-7.21958c-2.590354 7.436167-4.54931 15.083334-5.700882 22.870715-.264948 1.790906-.446922 3.587891-.583549 5.389675 1.450716-5.462108 3.844094-10.842183 5.796267-15.637546l.339639-.840069c2.284665-5.692131 5.054575-11.390725 6.539342-17.356944 1.335913-5.369938.880671-10.451711.921192-15.713042-.467067-1.057347-.938835-2.110744-1.412728-3.160556-.104352 8.335054-3.128594 16.489794-5.899281 24.447767zm.458195-11.575167c-1.321163 4.075819-2.795359 7.964731-4.137354 11.817291 2.063837-4.443319 4.469208-8.732827 6.035887-13.390252 1.667665-4.962919 1.768881-10.011859 1.813531-15.108072l-1.228496-2.657823h0c.515571 6.494205-.436807 13.03779-2.483568 19.338856zm-17.651625-22.066716c-3.514945 10.696088-3.69155 21.806216-2.785243 32.866562 2.623038 5.525049 5.179022 11.082545 7.670721 16.668812.010868-6.89046 2.568913-13.719127 5.605629-20.456017 2.852502-6.326976 6.565486-12.519236 7.727933-19.433634.69625-4.14702-.141022-8.21571-.626704-12.302304-3.615323-7.557918-7.39441-15.037564-11.339858-22.429366.700395 8.461172-3.643203 17.143451-6.252478 25.085947zm1.344956-34.084845c-.30081 9.22866-5.72975 17.817064-8.544316 26.693203-2.881197 9.084744-2.94171 18.040912-1.986817 27.056083 1.163774 2.355917 2.324418 4.712932 3.470969 7.07719-.422474-6.008896-.121857-12.070869 1.092517-18.320577 2.34225-12.053278 11.512961-23.947495 9.258384-36.511287-1.08702-2.005733-2.182154-4.003748-3.290737-5.994612zm57.287484 171.588204c-4.274886 1.923076-8.848534 3.056411-13.116828 4.993683-3.113447 1.412495-5.200487 3.3414-6.865508 5.632406.466723 1.887854.923047 3.776514 1.371731 5.666907 3.077873-2.746877 7.240264-4.881631 9.647302-6.1737 4.364631-2.341398 8.92051-4.350034 13.231599-6.773323 1.901416-1.065754 3.685311-2.318151 5.215787-3.873521 1.617255-1.643853 1.658851-2.929256 1.563804-4.607706-.606657-1.288884-1.219677-2.571612-1.836222-3.842009-1.005714 4.090615-5.138755 7.145726-9.211665 8.977263zm-94.374834 13.924804c2.496995-2.523126 7.441051-3.535645 10.366987-4.224778 6.65743-1.564589 13.561201-1.907954 20.372673-2.043049 8.068674-.160083 15.575751 1.762994 23.028115 4.714254 4.62415 1.832906 8.175368 4.937852 11.720894 8.077132-1.356273-5.547439-2.85934-11.354332-4.530781-17.438685-7.692425-7.305176-19.463694-10.757394-29.385436-12.23357-7.064701-1.050967-13.967634-.912211-20.971346.563016-3.036416.641554-5.893961 1.757007-8.665079 3.13712-1.84818.920841-3.293326 2.297851-4.856631 3.525788 1.01938 5.295661 1.985177 10.607409 2.920604 15.922772zm-17.55075-267.001913l-.509362-.628605c3.640666 10.822272 2.038206 22.281608.765023 33.863603-.902768 8.216591.137953 16.116353 1.877842 23.923664 7.356963 12.796056 14.552335 25.685859 21.555555 38.67634.428332-5.947777 1.737297-11.84192 3.016593-17.877203 1.059812-5.010876 2.669375-9.872909 3.724959-14.885821 1.212113-5.74638 1.260803-11.599978 2.322335-17.319256.020769-.109441.067233-.190279.101216-.285142-1.611953-2.464477-3.241322-4.917298-4.891328-7.358011 1.589879 15.67208-4.420027 31.84923-6.152843 47.185944-.001331.018599-.029475.014668-.028427-.00126.787517-7.98931 1.853456-15.946779 2.929411-23.898424 1.229065-9.07915 1.265722-17.582869.964805-26.642707-8.141665-11.876236-16.708209-23.47045-25.675779-34.753122zM86.1250778 79.5739437c1.566126 6.0314441 2.1911701 12.931066.4742111 18.5255722-1.8876208 6.1524301-4.2365473 11.3025931-4.6625388 17.1126181 4.6704053 7.567284 9.3079123 15.157607 13.8549603 22.796163 1.1055782 1.85715 2.199278 3.718601 3.2986854 5.578592-.4520455-4.616415-.1312088-9.334487.7138389-14.059409l.4197589-2.259589c1.8368144-10.081814 2.8895824-20.615251.6373698-30.6699543-4.7964319-5.7742243-9.717131-11.4415412-14.7362856-17.023993zm-5.6911695-6.2558986c1.5775427 4.6667803 1.394397 10.0961208 1.0267021 14.8800888-.3309909 4.3060407-1.6500129 8.411147-2.5283154 12.6278353-.5755951 2.7696178-.5349558 5.6234938-.677675 8.4347838l1.4602097 2.356951c.3698269-2.068674 1.0642378-4.174465 1.9788063-6.39671l.8309763-2.021016.3886052-.962875c1.6597326-4.1612966 2.9739203-8.1991213 2.7475639-12.9564888-.214777-4.4265141-1.5332928-8.7082613-2.5215699-13.0055667-.6243307-.6847582-1.2388861-1.3794395-1.8653411-2.0606112l-.8399621-.8963912zM62.5889829 54.7739494c3.9412645 9.3321012.0357001 20.5355257-.3270478 30.8532193l.1992339.3007338c3.8684582 5.5424844 7.871146 11.0069061 11.5732593 16.6701085.4952688-3.046972 1.3683712-6.0418973 2.0663114-8.5624288 1.0856716-3.9328797 3.0882754-7.5535625 3.7606475-11.5992517.7973908-4.8398202-1.0937195-8.6984353-2.9031267-12.7986805-4.7704802-4.9763476-9.6528169-9.8416162-14.3692776-14.8637006zM41.6634655 30.2720868c.8987931 2.5602104 1.3739941 5.3227007 1.6485962 8.0180719.4095649 3.9796055.310469 7.9860636.4554968 11.9765862.1245217 3.4654119 1.2358448 6.7860709 1.5337722 10.1810589 4.5529898 6.5343867 9.0141204 13.1257516 13.3991359 19.7692497-.0202707-2.2689107.3085132-4.5737802.7712419-6.7528382l.1918177-.8687621c1.6125217-7.0556501 4.2624815-13.1660477 1.3478934-19.5169076-1.8176182-1.9686961-3.6096056-3.9607241-5.3491229-6.0048461-4.6042411-5.4113493-9.1764194-11.2026587-13.9988312-16.8016127zM16.9070384 8.02929887c1.6871734 3.39669683 2.5190505 7.12066433 3.8687716 10.70179723l.3212916.8236657c.8450322 2.0930382 1.2779277 4.2078967 1.3842757 6.4535191.0813429 1.7165419.6905678 3.4495539 1.3926853 5.1563462 2.6655861 3.4649424 5.2986464 6.9508991 7.8992715 10.458515-.5439617-2.2274505-.9342868-4.5304338-1.2703961-6.9245511-1.029015-7.3484261-2.1807739-13.8116449-4.8597872-20.5215764-2.7731458-2.2609972-5.6725917-4.33129483-8.7361124-6.14771573zM4.27210858 7.66733456c.25358861-.13101962.57337613-.12275136.81312765.16241906 2.77623278 3.2797328 5.50713497 6.58754168 8.20873257 9.91591178-.2389285-.8034191-.4492813-1.5904751-.6448954-2.305304-.561556-2.0579627-1.0647474-4.1307122-1.62308218-6.18912813l-.13266976-.45879211-.24545342-.80678358c-.23323943-.80770468-.32064285-1.42960809.12450948-2.15537282-1.37012018-1.08349867-3.11218996-2.17713223-4.3434678-2.10318802-1.31492762.0817679-1.90522023 2.6811809-2.15680114 3.94023782zM17.2170771 16.4428169c-.4602165-3.3576896-1.9295805-6.57537273-2.8614424-9.83908934-.8600229-.45433943-1.7246777-.8948766-2.6095485-1.3062684l.1435933.17113851c1.911837.884983 2.0923592 3.96312182 2.5811563 5.85378833l.64839 2.4619354c.3219042 1.2323947.6314661 2.4681828.888609 3.7130028.3750105 1.8008133 1.2128974 3.5200652 1.3431506 5.3323004l.8967596 1.123138c-.5260547-2.4929814-.6850315-4.9777727-1.0306679-7.5099457zM41.5847711 46.02966l-.0130622-.6129489c-.0949185-3.4557687.0302924-6.7754955-.381698-10.2201887-.4563897-3.821786-1.8762556-6.7992021-3.7805565-9.7222703-1.4307548-1.5621968-2.8892753-3.092871-4.3808271-4.5827339 1.173183 2.7458233 1.9213584 5.749358 2.6417588 8.5082545 1.8833163 7.2098219 2.8126178 14.9102469 3.4826973 22.3505968l1.8358217 2.5482916c.3055403.4250031.609842.8507162.9113697 1.2779885-.4602416-3.186597-.2725197-6.6453562-.3155037-9.5469896zM12.1763552 56.3137764c.9599426 2.9349466 1.975593 5.8502199 3.0100275 8.7589054.0895325-.045473.192935-.0810619.3152285-.0897197 17.513982-1.3101159 30.0943738 9.9317635 42.331808 20.8786642l-2.2695426-3.5537338c-.3794825-.5918893-.7607083-1.1828514-1.1453737-1.7717954C38.4768447 56.0773676 21.474756 32.1748428 4.07815522 8.7519289c-.73700045 4.2638761-.39039812 8.7777057-.04065802 13.0471505.96626435 11.8337121 4.45800341 23.2844936 8.138858 34.514697zm40.187846 41.2625029l.7956788.2563211c5.6373884 1.8343498 12.6091195 4.5067136 17.5960273 8.7878496-.9346214-1.542575-1.8555222-3.090368-2.7957712-4.626234-11.537321-10.1294628-28.83572-13.0302471-43.7696316-12.7998335.4721705 1.2387644.9313553 2.483301 1.3966203 3.724352 8.7237741-.2520515 17.687519 1.8039985 25.9770038 4.4042663l.8000726.2532785zm6.0927915-10.7404755c-.0836816.3819622-.5036305.6803862-.8808291.3520883l-3.1254172-2.7351354c-11.1299243-9.698343-23.0021257-19.1842597-38.7062545-17.8239794 2.5683701 7.1338236 5.2837909 14.215397 7.9702105 21.3056533 13.3832977-.2410746 31.1935941 2.2253914 42.5284648 11.2918396-2.5602284-4.1511025-5.1560228-8.2794479-7.7861745-12.3904664zM31.1154036 108.360875c.8004776 2.384016 1.5502202 4.785692 2.2754713 7.195415 19.7590022-3.363164 39.6934761 7.116271 54.1572713 19.845485-5.0499303-8.965054-10.2260772-17.855802-15.5259541-26.673253-4.7288767-4.475722-11.7929298-7.19126-17.673254-9.2065227l-1.652686-.5602882c-8.1340614-2.7343652-17.7119014-5.2471913-26.50304-4.4259057 1.7014749 4.5855636 3.364184 9.1851296 4.9221915 13.8250696zm41.5269654 24.036916c7.4453829 4.347518 14.7921326 9.017295 21.3483769 14.570229-1.9323098-3.506301-3.877616-7.002226-5.8374786-10.489527l-2.2485184-1.359424c-7.134726-4.299051-14.4148929-8.511332-22.081891-11.732635-9.5274035-4.001992-19.1257315-4.325652-29.2339161-3.74186.4435678 1.554458.8806932 3.109821 1.3089803 4.667744 12.0617718-2.092172 26.4519566 2.073221 36.7444469 8.085473zm33.656583 14.659259c.206685-14.910933 4.790458-29.69731-.143693-43.963213-1.601628-1.9931668-3.208319-3.9849633-4.840269-5.9554528 1.922294 7.8642428 1.830326 15.6547168 1.062468 23.8583098l-.07899.821755c-.877419 8.916581-1.057102 18.483922.207969 27.56526 1.370091 2.33741 2.73548 4.67877 4.096359 7.020764-.256148-3.078677-.347239-6.198329-.303844-9.347423zm-58.1797579 19.454165c23.4257987-2.869746 47.4124265 3.800595 66.0043719 18.044556-1.13494-2.131812-2.269236-4.263714-3.400673-6.398648-7.618479-8.575406-18.3785115-14.637603-28.7686113-18.77137-6.888769-2.74124-14.1319465-4.558105-21.5001921-5.319135-3.3034596-.33873-6.6924594-.327455-10.0032854-.14307-2.0136761.111693-4.0428493.721344-6.0524625.866657 1.1812345 3.92627 2.4227769 7.832877 3.7208524 11.72101zm-7.9432855-26.415811c1.1438558 4.137335 2.3193803 8.26627 3.5357845 12.382221 4.4719564-1.721982 11.2130991-.799738 15.4646188-.362285 7.4020175.758251 14.8160495 2.814089 21.7615256 5.421106 11.1126063 4.1748 21.3892245 10.527912 29.1328015 19.395413l-3.821757-7.208c-3.683284-6.970389-7.4188044-13.910415-11.2066515-20.820723-6.3714646-5.167975-13.6024962-9.467405-20.6928022-12.708287l-1.8783406-.851345-1.2366975-.551286c-10.9492125-4.843585-22.5597087-8.939932-34.6283905-7.883652l2.3706779 8.797009c.3962651 1.465016.7950413 2.92868 1.199231 4.389829zM1.31444897 19.9978794l-.09535664-1.7568237C.96580575 13.3030007.88561188 7.57730007 3.43627127 3.37488328c.5644675-.93025865 1.20013726-1.45629163 1.86890172-1.6904352.20764207-.35534798.61489312-.61319134 1.1132167-.46565944C32.7768294 9.07432642 46.7200711 33.2901667 64.3739916 52.4765825c11.6154966 12.62365 23.7830589 24.5890306 34.9045909 37.690503 11.6887705 13.7679615 22.6491225 28.1453615 33.0622925 42.8976055 20.569747 29.141469 38.310303 59.951329 53.329047 92.305323 7.771484 16.740772 14.139005 34.113041 20.022519 51.594172 5.597591 16.628433 9.045534 34.365436 15.823976 50.523297 5.717734 13.632925 13.534635 26.064437 17.370324 40.461215l.15232.582752.230425.928365c1.7417 7.247002 3.389646 19.589013-2.537767 24.833514-3.786771 3.35028-10.476946.14713-14.353548-1.251118-4.405372-1.589497-12.006897-3.169864-17.206072-1.480361.384929.607975.748395 1.22686 1.074575 1.856251.268565.518485-.047883.978565-.489791 1.14397l.19378.912346c4.124652-3.648337 12.265558-3.251792 17.443198-1.496101 6.45283 2.191072 12.606128 6.329147 18.60127 9.546577 8.075097 4.331251 16.033762 5.760112 25.16196 4.957815.619039-.054875.754566.863694.134607.958808-11.269636 1.744897-20.193748-1.81563-29.88183-6.922768l-1.470038-.78011-.447718-.232746c-7.266064-3.742514-22.823548-10.092647-28.765273-2.280982.205335 1.008692.41049 2.016094.612322 3.027909 17.235698-7.808117 44.78289 10.190227 45.774341 28.399085.040742.767522-1.149773 1.239454-1.400383.394939-4.863773-16.305598-26.401662-31.243024-43.914908-26.530299l.470112 2.454825c2.901832 1.071833 5.953013 1.892519 8.791667 3.272416 3.823835 1.860025 7.532694 3.907183 11.088096 6.232368 7.436648 4.865566 11.707772 10.824162 14.581901 19.10641.175214.504002-.554672.831566-.762007.332741-3.159763-7.658834-9.847733-13.82249-16.624776-18.299546-3.355825-2.213867-6.98053-4.007882-10.582379-5.779468-2.277379-1.120894-4.262758-2.553115-6.307868-3.896056 6.626084 34.572356 10.702017 69.576483 14.779429 104.497554l-.211091-.580088-.356092-.937492c-3.910214-10.083362-15.917669-35.122521-18.740037-40.053912l-.044324-.619786-.050097-.90595c-.374957-7.720692-.222283-26.826256-6.167388-59.521331-10.927671 1.106098-20.986962 4.274991-26.667309 14.727354-3.933356 7.243093-3.182899 16.299518-5.977926 23.999876-.097692.272811-.509591.151257-.477026-.126857l.120924-1.101325.165165-1.658664c.875241-9.233152 1.162214-18.73325 6.729708-26.552113l.162127-.206918c-2.062142 1.624254-4.024095 3.409972-5.856798 5.362929-5.603253 5.970977-9.536861 13.483691-14.233984 20.143834l-.51422.719258-.51217.697167c-8.431598 11.320746-20.094354 19.295837-33.492587 9.682046-.44117-.31601-.024561-1.082783.476016-.834966 8.289471 4.089366 15.863485 4.949665 23.381176-1.067756 6.359245-5.087759 10.597505-12.81232 14.928487-19.567579 4.096904-6.386986 8.391298-12.275076 14.261894-17.156004 4.791072-3.98341 9.96603-6.144899 15.489763-7.459903 2.530128-.766267 5.158717-1.219595 7.776732-1.355164.83736-.106413 1.682588-.202535 2.534522-.29249l1.282784-.130822c.007731-.001088.011405.001683.020786.002993l-.039003-.202949c-17.877338-4.881343-30.520616 18.165242-48.79742 15.478384-15.484593-2.275514-20.217862-23.372375-22.994006-37.071316l-.685598-3.388581c-1.689591-8.235207-3.187615-16.476982-4.696803-24.704693-.147692-.148864-.223162-.377586-.141565-.573174l.027265-.053809-.84273-4.573216c-2.400569-12.95389-4.941301-25.874955-8.414281-38.696971-7.869748-29.069424-19.0251392-57.302451-33.0848475-83.924899-.3790572-.720582.3536585-1.598896 1.1135214-1.478955l2.2428014.358787c16.4830627 2.681121 33.7109337 6.496059 48.7840067 13.651015 4.361762 2.069711 8.359668 4.570664 11.997189 7.43399-3.945303-4.012123-8.160905-7.708083-12.541766-10.994822-13.04458-9.789186-27.956505-12.359651-43.0472829-17.373975-21.8761525-7.267102-31.2361939-28.205602-38.5192842-48.444759-.4217273-1.169588-.8300161-2.341724-1.231772-3.514122-.5223343-.388754-.7449535-1.122797-.6017927-1.764304-5.4884382-16.244013-9.6102122-32.903207-14.5465188-49.313667-.0688135-.162591-.1254664-.332153-.1513769-.507356-1.7139657-5.675962-3.5278199-11.324062-5.5333689-16.9103434-.7676391-2.1407484-1.5632415-4.2841379-2.3755834-6.429775-.2306511-.2016295-.3297354-.5236865-.3137564-.8310281l-.8179128-2.1397129-1.2427407-3.2139132C12.1920934 66.3007113 2.61852549 43.7372151 1.31444897 19.9978794z"/></g></svg>